<svg width="171" height="50" viewBox="0 0 171 50" fill="none" xmlns="http://www.w3.org/2000/svg">
<path d="M15.52 14.136H7.488V17.784H15.36V23.32H7.488V31H1.76V8.6H15.52V14.136ZM37.6788 28.12C35.4174 30.36 32.6441 31.48 29.3588 31.48C26.0734 31.48 23.2894 30.36 21.0068 28.12C18.7454 25.8587 17.6148 23.0853 17.6148 19.8C17.6148 16.5147 18.7454 13.752 21.0068 11.512C23.2894 9.25067 26.0734 8.12 29.3588 8.12C32.6441 8.12 35.4174 9.25067 37.6788 11.512C39.9614 13.752 41.1028 16.5147 41.1028 19.8C41.1028 23.0853 39.9614 25.8587 37.6788 28.12ZM25.0388 24.184C26.1908 25.3147 27.6308 25.88 29.3588 25.88C31.0868 25.88 32.5268 25.3147 33.6788 24.184C34.8308 23.032 35.4068 21.5707 35.4068 19.8C35.4068 18.0293 34.8308 16.5787 33.6788 15.448C32.5268 14.296 31.0868 13.72 29.3588 13.72C27.6308 13.72 26.1908 14.296 25.0388 15.448C23.8868 16.5787 23.3108 18.0293 23.3108 19.8C23.3108 21.5707 23.8868 23.032 25.0388 24.184ZM62.96 28.12C60.6987 30.36 57.9253 31.48 54.64 31.48C51.3547 31.48 48.5707 30.36 46.288 28.12C44.0267 25.8587 42.896 23.0853 42.896 19.8C42.896 16.5147 44.0267 13.752 46.288 11.512C48.5707 9.25067 51.3547 8.12 54.64 8.12C57.9253 8.12 60.6987 9.25067 62.96 11.512C65.2427 13.752 66.384 16.5147 66.384 19.8C66.384 23.0853 65.2427 25.8587 62.96 28.12ZM50.32 24.184C51.472 25.3147 52.912 25.88 54.64 25.88C56.368 25.88 57.808 25.3147 58.96 24.184C60.112 23.032 60.688 21.5707 60.688 19.8C60.688 18.0293 60.112 16.5787 58.96 15.448C57.808 14.296 56.368 13.72 54.64 13.72C52.912 13.72 51.472 14.296 50.32 15.448C49.168 16.5787 48.592 18.0293 48.592 19.8C48.592 21.5707 49.168 23.032 50.32 24.184ZM78.1613 8.6C81.2546 8.6 83.8359 9.67733 85.9053 11.832C87.9959 13.9653 89.0413 16.6213 89.0413 19.8C89.0413 22.9787 87.9959 25.6453 85.9053 27.8C83.8359 29.9333 81.2546 31 78.1613 31H69.0413V8.6H78.1613ZM78.1613 25.464C79.7186 25.464 80.9879 24.952 81.9693 23.928C82.9506 22.8827 83.4412 21.5067 83.4412 19.8C83.4412 18.0933 82.9506 16.728 81.9693 15.704C80.9879 14.6587 79.7186 14.136 78.1613 14.136H74.9293V25.464H78.1613ZM114.546 8.6V31H108.85V18.936L103.41 27.928H102.834L97.4255 18.968V31H91.6975V8.6H97.4255L103.122 18.168L108.85 8.6H114.546ZM131.768 31L130.808 27.768H123.352L122.392 31H116.184L123.576 8.6H130.552L137.944 31H131.768ZM124.824 22.84H129.336L127.064 15.224L124.824 22.84ZM153.339 8.6V14.136H147.803V31H142.075V14.136H136.539V8.6H153.339ZM161.144 25.624H169.816V31H155.416V8.6H169.656V13.944H161.144V17.048H168.856V22.328H161.144V25.624Z" fill="#69BE56"/>
<path d="M60.4 43.18C53.9467 46.4067 47.3467 48.02 40.6 48.02C33.8533 48.02 27.2533 46.4067 20.8 43.18V35.832C27.2533 39.0587 33.8533 40.672 40.6 40.672C47.3467 40.672 53.9467 39.0587 60.4 35.832V43.18Z" fill="#69BE56"/>
</svg>
