<svg width="10" height="15" viewBox="0 0 10 15" fill="none" xmlns="http://www.w3.org/2000/svg">
<g clip-path="url(#clip0_1090_1326)">
<path d="M9.96599 9.77539C9.96599 9.79729 9.96565 9.81958 9.96565 9.84183C9.96394 10.031 9.95223 10.218 9.93092 10.4025C9.87832 10.8627 9.76692 11.306 9.60466 11.7238C9.59709 11.7433 9.58952 11.7627 9.58161 11.7821C9.5737 11.8012 9.56579 11.8207 9.55822 11.8401C9.54997 11.8592 9.54205 11.8786 9.5338 11.8977C9.52969 11.9069 9.52555 11.9161 9.52178 11.9256C9.51661 11.9373 9.51147 11.949 9.5063 11.9606C9.49805 11.9794 9.48945 11.9985 9.48086 12.0175C8.78945 13.5241 7.42075 14.6443 5.77527 14.9204C5.75363 14.9239 5.73195 14.9275 5.71031 14.9307C5.62815 14.943 5.54527 14.9537 5.46209 14.9621C5.31425 14.9767 5.16469 14.9844 5.01308 14.9855C2.24712 15.0021 0 12.702 0 9.86201C0 9.81641 0.000684932 9.77081 0.00171233 9.72556C0.00239726 9.70292 0.00308219 9.68032 0.00410959 9.65768C0.00479452 9.64106 0.00547945 9.62444 0.00650685 9.60782C0.0109932 9.51166 0.0185274 9.41623 0.0288699 9.32148C0.0333562 9.2787 0.0384931 9.23592 0.0440068 9.19352C0.0539726 9.11859 0.0656507 9.04398 0.0787329 8.96975C0.0828425 8.9482 0.0866438 8.92627 0.0910959 8.90437C0.0986644 8.86405 0.106918 8.82377 0.115514 8.78384C0.119281 8.76687 0.123082 8.7499 0.127192 8.73292C0.161233 8.58338 0.202158 8.43634 0.249247 8.29176C0.255788 8.27127 0.262671 8.25074 0.269863 8.23025C0.275377 8.21328 0.281199 8.19666 0.287397 8.17968C0.29976 8.14398 0.312842 8.10863 0.326233 8.07328C0.332432 8.0563 0.338938 8.03968 0.345479 8.02306C0.35613 7.99549 0.367123 7.96792 0.378493 7.94035C0.387432 7.91845 0.396712 7.89651 0.405993 7.87461C0.415274 7.85271 0.424555 7.83113 0.434178 7.80958C0.445171 7.78482 0.456541 7.76011 0.467534 7.7357C0.47613 7.71732 0.484726 7.69894 0.493664 7.68056C0.503973 7.65901 0.514281 7.63778 0.524623 7.61658C0.535274 7.59539 0.545582 7.57416 0.55661 7.55331C0.56726 7.53211 0.577911 7.51123 0.589281 7.49039C0.600274 7.46954 0.611301 7.44866 0.622637 7.42817C0.632603 7.40979 0.642911 7.39141 0.653219 7.37338C0.713733 7.26521 0.778356 7.15951 0.846781 7.0563C0.857431 7.03968 0.868425 7.02306 0.879795 7.00683C1.09089 6.69539 1.33466 6.40838 1.60592 6.15032C1.70702 6.05451 1.81185 5.96261 1.92017 5.87493C3.59003 4.52387 4.34678 2.30004 3.86339 0.172711C3.83315 0.0394364 3.95106 0.000915371 4.02325 0.0182393C4.02668 0.0192957 4.03014 0.020352 4.03356 0.0214083C4.03527 0.0221126 4.03733 0.0228168 4.03908 0.0231689C4.06247 0.0313027 4.08582 0.0390844 4.10887 0.0475703C4.16938 0.0687675 4.22955 0.0914083 4.28904 0.114718C4.30623 0.121443 4.32342 0.128521 4.34027 0.135211C4.36089 0.143697 4.38154 0.152183 4.40182 0.160669C4.41901 0.167746 4.43586 0.174824 4.45271 0.182218C4.47229 0.190704 4.49154 0.19919 4.51082 0.207676C4.53247 0.217218 4.55414 0.227112 4.57579 0.237007C4.62531 0.259648 4.67445 0.282958 4.72329 0.307007C4.74493 0.317606 4.76661 0.328556 4.78791 0.339542C4.82918 0.360387 4.87041 0.381972 4.91134 0.403873C4.93229 0.415176 4.95295 0.426127 4.97356 0.437817C4.99866 0.451619 5.02342 0.465387 5.04815 0.479894C5.19634 0.564014 5.34175 0.654859 5.48479 0.751725C5.5099 0.768697 5.53466 0.785669 5.55942 0.802993C5.75469 0.939084 5.94517 1.08683 6.13014 1.24451C6.15318 1.26394 6.17586 1.28373 6.19856 1.30356C6.2711 1.36683 6.34295 1.43151 6.4138 1.49799C6.43616 1.51919 6.45849 1.54042 6.48086 1.56162C6.59603 1.67155 6.7088 1.78574 6.81952 1.9038C6.83842 1.9243 6.85767 1.94482 6.87661 1.96567C6.90068 1.99183 6.92473 2.01799 6.94846 2.04451C6.96702 2.06535 6.98558 2.08623 7.00414 2.10708C7.02545 2.13113 7.04644 2.15479 7.0674 2.17919C7.09079 2.20606 7.1138 2.23292 7.13685 2.26014C7.15301 2.27923 7.16918 2.29866 7.18534 2.31775C7.20805 2.34496 7.23038 2.37218 7.25274 2.3994C7.27301 2.42451 7.29332 2.44926 7.31325 2.47433C7.33353 2.49944 7.35384 2.52489 7.37342 2.55032C7.39233 2.57401 7.41089 2.59803 7.42911 2.62208C7.44113 2.63694 7.4525 2.65176 7.46384 2.66697C7.48 2.68746 7.49582 2.70834 7.51127 2.72954C7.52435 2.74687 7.5374 2.76419 7.5501 2.78151C7.58894 2.83384 7.62712 2.88651 7.66527 2.93954C7.70377 2.99363 7.74195 3.04771 7.77942 3.1025C7.79764 3.12866 7.81517 3.15482 7.83305 3.18099C7.85127 3.20785 7.86949 3.23542 7.88771 3.26264C7.90592 3.28986 7.9238 3.31743 7.94168 3.345C7.95613 3.36655 7.97021 3.38849 7.98431 3.41039C8.25455 3.83141 8.50072 4.27468 8.72041 4.73176C8.7462 4.78549 8.77164 4.83923 8.79675 4.89331C8.92051 5.15951 9.035 5.42993 9.14021 5.70317C9.15188 5.73356 9.1636 5.76398 9.17493 5.79437C9.18661 5.82475 9.19798 5.85518 9.20897 5.88592C9.22031 5.9163 9.23134 5.94673 9.24233 5.97746C9.25332 6.00785 9.26435 6.03827 9.275 6.06901C9.3087 6.16482 9.34137 6.26095 9.37264 6.35711C9.38123 6.38398 9.39017 6.41049 9.39842 6.43736C9.40839 6.4681 9.41836 6.49887 9.42764 6.52961C9.43726 6.5607 9.44688 6.59148 9.45616 6.62222C9.48161 6.70634 9.50637 6.79049 9.52973 6.87461C9.53418 6.89088 9.53866 6.9068 9.54315 6.92268C9.54969 6.94602 9.55586 6.96933 9.5624 6.99268C9.57065 7.02377 9.5789 7.05489 9.58716 7.08563C9.59507 7.11637 9.60298 7.1475 9.61089 7.17824C9.61949 7.21077 9.6274 7.24327 9.63531 7.27581C9.64908 7.33201 9.66247 7.3882 9.67589 7.44444C9.6838 7.47944 9.69171 7.51444 9.69962 7.54944C9.71267 7.60954 9.72575 7.66926 9.73812 7.72937C9.73846 7.73113 9.7388 7.73289 9.73914 7.73468C9.75185 7.7962 9.7639 7.85736 9.77558 7.91849C9.81651 8.13447 9.85123 8.34975 9.87908 8.56327C9.88318 8.59401 9.88699 8.62444 9.89075 8.65482C9.89212 8.66683 9.89349 8.67852 9.89486 8.69053C9.90175 8.74637 9.90794 8.80187 9.91342 8.85736C9.91685 8.88845 9.91997 8.91958 9.92271 8.95032C9.92856 9.01218 9.93404 9.07405 9.93853 9.13521C9.94298 9.19497 9.94712 9.25468 9.95055 9.31408C9.9526 9.34979 9.95466 9.38549 9.95606 9.42085C9.95743 9.44736 9.95846 9.47423 9.95983 9.50074V9.5025C9.96086 9.53148 9.96188 9.56046 9.96291 9.58912V9.59655C9.9636 9.62518 9.96428 9.6538 9.96497 9.68246C9.96565 9.71352 9.96599 9.74465 9.96599 9.77539Z" fill="url(#paint0_radial_1090_1326)"/>
<path d="M7.70899 12.0945C7.4142 13.5819 5.99423 14.5666 4.55201 14.2421C3.12132 13.9203 2.22043 12.4635 2.54149 10.9965C2.7066 10.2421 3.1779 9.63602 3.79057 9.2713C4.82725 8.65412 5.47043 7.55828 5.63369 6.3381C5.63396 6.33606 5.63427 6.33514 5.63461 6.33532C7.36139 7.29905 8.10482 10.0974 7.70899 12.0945Z" fill="url(#paint1_radial_1090_1326)"/>
<path d="M9.96599 9.77539C9.96599 9.79729 9.96565 9.81958 9.96565 9.84183C9.96325 10.0313 9.9512 10.2187 9.9299 10.4032C9.87661 10.8634 9.76589 11.3067 9.60466 11.7238C9.59709 11.7433 9.58952 11.7627 9.58161 11.7821C9.5737 11.8012 9.56579 11.8207 9.55822 11.8401C9.54997 11.8592 9.54205 11.8786 9.5338 11.8977C9.52969 11.9069 9.52555 11.9161 9.52178 11.9256C9.51661 11.9373 9.51147 11.949 9.5063 11.9606C9.49805 11.9794 9.48945 11.9985 9.48086 12.0175C8.79116 13.5262 7.42695 14.6461 5.77527 14.9204C5.75363 14.9239 5.73195 14.9275 5.71031 14.9307C5.62815 14.9434 5.54527 14.9537 5.46209 14.9621C5.31425 14.9767 5.16469 14.9844 5.01308 14.9855C2.24712 15.0021 0 12.702 0 9.86201C0 9.81641 0.000684932 9.77081 0.00171233 9.72556C0.00239726 9.70292 0.00308219 9.68032 0.00410959 9.65768C0.00479452 9.64106 0.00547945 9.62444 0.00650685 9.60782C0.0109932 9.51166 0.0185274 9.41623 0.0288699 9.32148C0.0333562 9.2787 0.0384931 9.23592 0.0440068 9.19352C0.0539726 9.11859 0.0656507 9.04398 0.0787329 8.96975C0.0828425 8.9482 0.0866438 8.92627 0.0910959 8.90437C0.0986644 8.86405 0.106918 8.82377 0.115514 8.78384C0.119281 8.76687 0.123082 8.7499 0.127192 8.73292C0.161233 8.58338 0.202158 8.43634 0.249247 8.29176C0.255788 8.27127 0.262671 8.25074 0.269863 8.23025C0.275377 8.21328 0.281199 8.19666 0.287397 8.17968C0.29976 8.14398 0.312842 8.10863 0.326233 8.07328C0.332432 8.0563 0.338938 8.03968 0.345479 8.02306C0.35613 7.99549 0.367123 7.96792 0.378493 7.94035C0.387432 7.91845 0.396712 7.89651 0.405993 7.87461C0.415274 7.85271 0.424555 7.83113 0.434178 7.80958C0.445171 7.78482 0.456541 7.76011 0.467534 7.7357C0.47613 7.71732 0.484726 7.69894 0.493664 7.68056C0.503973 7.65901 0.514281 7.63778 0.524623 7.61658C0.535274 7.59539 0.545582 7.57416 0.55661 7.55331C0.56726 7.53211 0.577911 7.51123 0.589281 7.49039C0.600274 7.46954 0.611301 7.44866 0.622637 7.42817C0.632603 7.40979 0.642911 7.39141 0.653219 7.37338C0.713733 7.26521 0.778356 7.15951 0.846781 7.0563C0.857431 7.03968 0.868425 7.02306 0.879795 7.00683C1.09089 6.69539 1.33466 6.40838 1.60592 6.15032C1.70702 6.05451 1.81185 5.96261 1.92017 5.87493C3.59003 4.52387 4.34678 2.30004 3.86339 0.172711C3.83315 0.0394364 3.95106 0.000915371 4.02325 0.0182393C4.02668 0.0192957 4.03014 0.020352 4.03356 0.0214083C4.03527 0.0221126 4.03733 0.0228168 4.03908 0.0231689C4.06247 0.0313027 4.08582 0.0390844 4.10887 0.0475703C4.16938 0.0687675 4.22955 0.0914083 4.28904 0.114718C4.30623 0.121443 4.32342 0.128521 4.34027 0.135211C4.36089 0.143697 4.38154 0.152183 4.40182 0.160669C4.41901 0.167746 4.43586 0.174824 4.45271 0.182218C4.47229 0.190704 4.49154 0.19919 4.51082 0.207676C4.53247 0.217218 4.55414 0.227112 4.57579 0.237007C4.62531 0.259648 4.67445 0.282958 4.72329 0.307007C4.74493 0.317606 4.76661 0.328556 4.78791 0.339542C4.82918 0.360387 4.87041 0.381972 4.91134 0.403873C4.93229 0.415176 4.95295 0.426127 4.97356 0.437817C4.99866 0.451619 5.02342 0.465387 5.04815 0.479894C5.19634 0.564014 5.34175 0.654859 5.48479 0.751725C5.5099 0.768697 5.53466 0.785669 5.55942 0.802993C5.75469 0.939084 5.94517 1.08683 6.13014 1.24451C6.15318 1.26394 6.17586 1.28373 6.19856 1.30356C6.2711 1.36683 6.34295 1.43151 6.4138 1.49799C6.43616 1.51919 6.45849 1.54042 6.48086 1.56162C6.59603 1.67155 6.7088 1.78574 6.81952 1.9038C6.83842 1.9243 6.85767 1.94482 6.87661 1.96567C6.90068 1.99183 6.92473 2.01799 6.94846 2.04451C6.96702 2.06535 6.98558 2.08623 7.00414 2.10708C7.02545 2.13113 7.04644 2.15479 7.0674 2.17919C7.09079 2.20606 7.1138 2.23292 7.13685 2.26014C7.15301 2.27923 7.16918 2.29866 7.18534 2.31775C7.20805 2.34496 7.23038 2.37218 7.25274 2.3994C7.27301 2.42451 7.29332 2.44926 7.31325 2.47433C7.33353 2.49944 7.35384 2.52489 7.37342 2.55032C7.39233 2.57401 7.41089 2.59803 7.42911 2.62208C7.44113 2.63694 7.4525 2.65176 7.46384 2.66697C7.48 2.68746 7.49582 2.70834 7.51127 2.72954C7.52435 2.74687 7.5374 2.76419 7.5501 2.78151C7.58894 2.83384 7.62712 2.88651 7.66527 2.93954C7.70377 2.99363 7.74195 3.04771 7.77942 3.1025C7.79764 3.12866 7.81517 3.15482 7.83305 3.18099C7.85127 3.20785 7.86949 3.23542 7.88771 3.26264C7.90592 3.28986 7.9238 3.31743 7.94168 3.345C7.95613 3.36655 7.97021 3.38849 7.98431 3.41039C8.25455 3.83141 8.50072 4.27468 8.72041 4.73176C8.7462 4.78549 8.77164 4.83923 8.79675 4.89331C8.92051 5.15951 9.035 5.42993 9.14021 5.70317C9.15188 5.73356 9.1636 5.76398 9.17493 5.79437C9.18661 5.82475 9.19798 5.85518 9.20897 5.88592C9.22031 5.9163 9.23134 5.94673 9.24233 5.97746C9.25332 6.00785 9.26435 6.03827 9.275 6.06901C9.3087 6.16482 9.34137 6.26095 9.37264 6.35711C9.38123 6.38398 9.39017 6.41049 9.39842 6.43736C9.40839 6.4681 9.41836 6.49887 9.42764 6.52961C9.43726 6.5607 9.44688 6.59148 9.45616 6.62222C9.48161 6.70634 9.50603 6.79049 9.52973 6.87461C9.53418 6.89088 9.53866 6.9068 9.54315 6.92268C9.54969 6.94602 9.55586 6.96933 9.5624 6.99268C9.57065 7.02377 9.5789 7.05489 9.58716 7.08563C9.59507 7.11637 9.60298 7.1475 9.61089 7.17824C9.61949 7.21077 9.6274 7.24327 9.63531 7.27581C9.64908 7.33201 9.66247 7.3882 9.67589 7.44444C9.6838 7.47944 9.69171 7.51444 9.69962 7.54944C9.71267 7.60954 9.72575 7.66926 9.73812 7.72937C9.73846 7.73113 9.7388 7.73289 9.73914 7.73468C9.75185 7.7962 9.7639 7.85736 9.77558 7.91849C9.81651 8.13447 9.85123 8.34975 9.87908 8.56327C9.88318 8.59401 9.88699 8.62444 9.89075 8.65482C9.89212 8.66683 9.89349 8.67852 9.89486 8.69053C9.90175 8.74637 9.90794 8.80187 9.91342 8.85736C9.91685 8.88845 9.91997 8.91958 9.92271 8.95032C9.92856 9.01218 9.93404 9.07405 9.93853 9.13521C9.94298 9.19497 9.94712 9.25468 9.95055 9.31408C9.9526 9.34979 9.95466 9.38549 9.95606 9.42085C9.95743 9.44736 9.95846 9.47423 9.95983 9.50074V9.5025C9.96086 9.53148 9.96188 9.56046 9.96291 9.58912V9.59655C9.9636 9.61211 9.96394 9.62764 9.96428 9.6432C9.96462 9.65627 9.96497 9.66937 9.96497 9.68243C9.96565 9.71352 9.96599 9.74465 9.96599 9.77539Z" fill="url(#paint2_radial_1090_1326)"/>
<path d="M8.83332 9.50912C8.72733 11.7947 6.83257 13.5978 4.61134 13.456C2.40791 13.3153 0.739557 11.3584 0.889214 9.09697C0.9662 7.93408 1.53254 6.91958 2.36356 6.23113C3.76969 5.06623 4.67904 3.13697 4.64897 1.2806C4.64897 1.28046 4.64908 1.27993 4.64932 1.27905C4.68278 1.14979 4.82192 1.08208 4.94137 1.135C7.58545 2.30577 8.97178 6.52274 8.83332 9.50912Z" fill="url(#paint3_linear_1090_1326)"/>
</g>
<defs>
<radialGradient id="paint0_radial_1090_1326" cx="0" cy="0" r="1" gradientUnits="userSpaceOnUse" gradientTransform="translate(-0.25252 -0.0276434) scale(14.4947 14.903)">
<stop stop-color="#FFCF42"/>
<stop offset="0.262" stop-color="#FFCD42"/>
<stop offset="0.408" stop-color="#FFC540"/>
<stop offset="0.525" stop-color="#FFB73E"/>
<stop offset="0.628" stop-color="#FFA33A"/>
<stop offset="0.72" stop-color="#FF8A35"/>
<stop offset="0.805" stop-color="#FF6A30"/>
<stop offset="0.885" stop-color="#FF4529"/>
<stop offset="0.958" stop-color="#FF1B21"/>
<stop offset="1" stop-color="#FF001C"/>
</radialGradient>
<radialGradient id="paint1_radial_1090_1326" cx="0" cy="0" r="1" gradientUnits="userSpaceOnUse" gradientTransform="translate(5.52357 8.11879) scale(5.43928 5.5925)">
<stop stop-color="#FFB500" stop-opacity="0"/>
<stop offset="0.109" stop-color="#FCAD01" stop-opacity="0.109"/>
<stop offset="0.281" stop-color="#F49605" stop-opacity="0.281"/>
<stop offset="0.496" stop-color="#E8710B" stop-opacity="0.496"/>
<stop offset="0.744" stop-color="#D63D13" stop-opacity="0.744"/>
<stop offset="1" stop-color="#C1001C"/>
</radialGradient>
<radialGradient id="paint2_radial_1090_1326" cx="0" cy="0" r="1" gradientUnits="userSpaceOnUse" gradientTransform="translate(3.65908 4.71508) scale(9.65222 9.92412)">
<stop stop-color="#F9C6A0" stop-opacity="0"/>
<stop offset="0.014" stop-color="#F9C69E" stop-opacity="0"/>
<stop offset="0.02" stop-color="#FAC797" stop-opacity="0"/>
<stop offset="0.023" stop-color="#FAC88C" stop-opacity="0"/>
<stop offset="0.026" stop-color="#FBCA7B" stop-opacity="0"/>
<stop offset="0.029" stop-color="#FDCC65" stop-opacity="0"/>
<stop offset="0.031" stop-color="#FECE4A" stop-opacity="0"/>
<stop offset="0.032" stop-color="#FFCF42" stop-opacity="0"/>
<stop offset="0.408" stop-color="#FFCD42" stop-opacity="0.389"/>
<stop offset="0.543" stop-color="#FFC640" stop-opacity="0.529"/>
<stop offset="0.64" stop-color="#FFBB3E" stop-opacity="0.628"/>
<stop offset="0.718" stop-color="#FFAA3B" stop-opacity="0.709"/>
<stop offset="0.785" stop-color="#FF9437" stop-opacity="0.778"/>
<stop offset="0.845" stop-color="#FF7832" stop-opacity="0.839"/>
<stop offset="0.898" stop-color="#FF582C" stop-opacity="0.895"/>
<stop offset="0.947" stop-color="#FF3225" stop-opacity="0.946"/>
<stop offset="0.991" stop-color="#FF091E" stop-opacity="0.991"/>
<stop offset="1" stop-color="#FF001C"/>
</radialGradient>
<linearGradient id="paint3_linear_1090_1326" x1="6.83001" y1="6.40836" x2="15.8686" y2="1.30505" gradientUnits="userSpaceOnUse">
<stop offset="0.0001" stop-color="#E7EEED" stop-opacity="0"/>
<stop offset="1" stop-color="#E7EEED"/>
</linearGradient>
<clipPath id="clip0_1090_1326">
<rect width="10" height="15" fill="white"/>
</clipPath>
</defs>
</svg>
