<svg width="64" height="64" viewBox="0 0 64 64" fill="none" xmlns="http://www.w3.org/2000/svg">
<path d="M32 62C48.5685 62 62 48.5685 62 32C62 15.4315 48.5685 2 32 2C15.4315 2 2 15.4315 2 32C2 48.5685 15.4315 62 32 62Z" fill="#555A6E"/>
<path d="M33 60C47.9117 60 60 47.9117 60 33C60 18.0883 47.9117 6 33 6C18.0883 6 6 18.0883 6 33C6 47.9117 18.0883 60 33 60Z" fill="#463C4B"/>
<path d="M58 32H32V58C46.3594 58 58 46.3594 58 32Z" fill="#A5C3DC"/>
<path d="M6 32H32V58C17.6406 58 6 46.3594 6 32Z" fill="#F06423"/>
<path d="M29.6665 52C31.8756 52 33.6665 50.2091 33.6665 48C33.6665 45.7909 31.8756 44 29.6665 44C27.4574 44 25.6665 45.7909 25.6665 48C25.6665 50.2091 27.4574 52 29.6665 52Z" fill="#FAA019"/>
<path d="M20 48C22.2091 48 24 46.2091 24 44C24 41.7909 22.2091 40 20 40C17.7909 40 16 41.7909 16 44C16 46.2091 17.7909 48 20 48Z" fill="#FAA019"/>
<path d="M20.3335 55.3334C22.5426 55.3334 24.3335 53.5425 24.3335 51.3334C24.3335 49.1242 22.5426 47.3334 20.3335 47.3334C18.1244 47.3334 16.3335 49.1242 16.3335 51.3334C16.3335 53.5425 18.1244 55.3334 20.3335 55.3334Z" fill="#FAA019"/>
<path d="M29.6665 58C31.3234 58 32.6665 56.6569 32.6665 55C32.6665 53.3431 31.3234 52 29.6665 52C28.0096 52 26.6665 53.3431 26.6665 55C26.6665 56.6569 28.0096 58 29.6665 58Z" fill="#FAA019"/>
<path d="M12.3335 48.3334C13.9904 48.3334 15.3335 46.9902 15.3335 45.3334C15.3335 43.6765 13.9904 42.3334 12.3335 42.3334C10.6766 42.3334 9.3335 43.6765 9.3335 45.3334C9.3335 46.9902 10.6766 48.3334 12.3335 48.3334Z" fill="#FAA019"/>
<path d="M14.3335 42C15.9904 42 17.3335 40.6569 17.3335 39C17.3335 37.3431 15.9904 36 14.3335 36C12.6766 36 11.3335 37.3431 11.3335 39C11.3335 40.6569 12.6766 42 14.3335 42Z" fill="#FAA019"/>
<path d="M10 39C12.2091 39 14 37.2091 14 35C14 32.7909 12.2091 31 10 31C7.79086 31 6 32.7909 6 35C6 37.2091 7.79086 39 10 39Z" fill="#FAA019"/>
<path d="M23.8335 52C24.9381 52 25.8335 51.1046 25.8335 50C25.8335 48.8954 24.9381 48 23.8335 48C22.7289 48 21.8335 48.8954 21.8335 50C21.8335 51.1046 22.7289 52 23.8335 52Z" fill="#FFBE28"/>
<path d="M25 56.3334C26.1046 56.3334 27 55.4379 27 54.3334C27 53.2288 26.1046 52.3334 25 52.3334C23.8954 52.3334 23 53.2288 23 54.3334C23 55.4379 23.8954 56.3334 25 56.3334Z" fill="#FAA019"/>
<path d="M31 54.3334C32.1046 54.3334 33 53.4379 33 52.3334C33 51.2288 32.1046 50.3334 31 50.3334C29.8954 50.3334 29 51.2288 29 52.3334C29 53.4379 29.8954 54.3334 31 54.3334Z" fill="#FAA019"/>
<path d="M16 52C17.1046 52 18 51.1046 18 50C18 48.8954 17.1046 48 16 48C14.8954 48 14 48.8954 14 50C14 51.1046 14.8954 52 16 52Z" fill="#FFBE28"/>
<path d="M17.6665 36.3334C18.7711 36.3334 19.6665 35.4379 19.6665 34.3334C19.6665 33.2288 18.7711 32.3334 17.6665 32.3334C16.5619 32.3334 15.6665 33.2288 15.6665 34.3334C15.6665 35.4379 16.5619 36.3334 17.6665 36.3334Z" fill="#FFBE28"/>
<path d="M18 48C19.1046 48 20 47.1046 20 46C20 44.8954 19.1046 44 18 44C16.8954 44 16 44.8954 16 46C16 47.1046 16.8954 48 18 48Z" fill="#FAA019"/>
<path d="M12 44C13.1046 44 14 43.1046 14 42C14 40.8954 13.1046 40 12 40C10.8954 40 10 40.8954 10 42C10 43.1046 10.8954 44 12 44Z" fill="#FFBE28"/>
<path d="M30 50C31.1046 50 32 49.1046 32 48C32 46.8954 31.1046 46 30 46C28.8954 46 28 46.8954 28 48C28 49.1046 28.8954 50 30 50Z" fill="#FFBE28"/>
<path d="M15.3335 40C16.4381 40 17.3335 39.1046 17.3335 38C17.3335 36.8954 16.4381 36 15.3335 36C14.2289 36 13.3335 36.8954 13.3335 38C13.3335 39.1046 14.2289 40 15.3335 40Z" fill="#FAA019"/>
<path d="M8 35C9.10457 35 10 34.1046 10 33C10 31.8954 9.10457 31 8 31C6.89543 31 6 31.8954 6 33C6 34.1046 6.89543 35 8 35Z" fill="#FFBE28"/>
<path d="M9 40C9.55228 40 10 39.5523 10 39C10 38.4477 9.55228 38 9 38C8.44772 38 8 38.4477 8 39C8 39.5523 8.44772 40 9 40Z" fill="#FFBE28"/>
<path d="M17 42C17.5523 42 18 41.5523 18 41C18 40.4477 17.5523 40 17 40C16.4477 40 16 40.4477 16 41C16 41.5523 16.4477 42 17 42Z" fill="#FFBE28"/>
<path d="M23 46C23.5523 46 24 45.5523 24 45C24 44.4477 23.5523 44 23 44C22.4477 44 22 44.4477 22 45C22 45.5523 22.4477 46 23 46Z" fill="#FFBE28"/>
<path d="M31 56C31.5523 56 32 55.5523 32 55C32 54.4477 31.5523 54 31 54C30.4477 54 30 54.4477 30 55C30 55.5523 30.4477 56 31 56Z" fill="#FFBE28"/>
<path d="M10.6665 37C11.7711 37 12.6665 36.1046 12.6665 35C12.6665 33.8954 11.7711 33 10.6665 33C9.56193 33 8.6665 33.8954 8.6665 35C8.6665 36.1046 9.56193 37 10.6665 37Z" fill="#FAA019"/>
<path d="M14.3335 46.3334C15.4381 46.3334 16.3335 45.4379 16.3335 44.3334C16.3335 43.2288 15.4381 42.3334 14.3335 42.3334C13.2289 42.3334 12.3335 43.2288 12.3335 44.3334C12.3335 45.4379 13.2289 46.3334 14.3335 46.3334Z" fill="#FAA019"/>
<path d="M21.6665 51.3334C22.7711 51.3334 23.6665 50.4379 23.6665 49.3334C23.6665 48.2288 22.7711 47.3334 21.6665 47.3334C20.5619 47.3334 19.6665 48.2288 19.6665 49.3334C19.6665 50.4379 20.5619 51.3334 21.6665 51.3334Z" fill="#FAA019"/>
<path d="M15.3335 34.6666C16.4381 34.6666 17.3335 33.7712 17.3335 32.6666C17.3335 31.5621 16.4381 30.6666 15.3335 30.6666C14.2289 30.6666 13.3335 31.5621 13.3335 32.6666C13.3335 33.7712 14.2289 34.6666 15.3335 34.6666Z" fill="#FAA019"/>
<path d="M58 32H32V6C46.3594 6 58 17.6406 58 32Z" fill="#A55023"/>
<path d="M35.3335 20C37.5426 20 39.3335 18.2091 39.3335 16C39.3335 13.7909 37.5426 12 35.3335 12C33.1244 12 31.3335 13.7909 31.3335 16C31.3335 18.2091 33.1244 20 35.3335 20Z" fill="#D26E28"/>
<path d="M44 24C46.2091 24 48 22.2091 48 20C48 17.7909 46.2091 16 44 16C41.7909 16 40 17.7909 40 20C40 22.2091 41.7909 24 44 24Z" fill="#D26E28"/>
<path d="M44 16C46.2091 16 48 14.2091 48 12C48 9.79086 46.2091 8 44 8C41.7909 8 40 9.79086 40 12C40 14.2091 41.7909 16 44 16Z" fill="#D26E28"/>
<path d="M34.6665 12C36.3234 12 37.6665 10.6569 37.6665 9C37.6665 7.34315 36.3234 6 34.6665 6C33.0097 6 31.6665 7.34315 31.6665 9C31.6665 10.6569 33.0097 12 34.6665 12Z" fill="#D26E28"/>
<path d="M51 22C52.6569 22 54 20.6569 54 19C54 17.3431 52.6569 16 51 16C49.3431 16 48 17.3431 48 19C48 20.6569 49.3431 22 51 22Z" fill="#D26E28"/>
<path d="M49.6665 28C51.3234 28 52.6665 26.6569 52.6665 25C52.6665 23.3431 51.3234 22 49.6665 22C48.0096 22 46.6665 23.3431 46.6665 25C46.6665 26.6569 48.0096 28 49.6665 28Z" fill="#D26E28"/>
<path d="M54 33C56.2091 33 58 31.2091 58 29C58 26.7909 56.2091 25 54 25C51.7909 25 50 26.7909 50 29C50 31.2091 51.7909 33 54 33Z" fill="#D26E28"/>
<path d="M40.1665 16C41.2711 16 42.1665 15.1046 42.1665 14C42.1665 12.8954 41.2711 12 40.1665 12C39.0619 12 38.1665 12.8954 38.1665 14C38.1665 15.1046 39.0619 16 40.1665 16Z" fill="#F28A39"/>
<path d="M32.3335 14.3334C33.4381 14.3334 34.3335 13.4379 34.3335 12.3334C34.3335 11.2288 33.4381 10.3334 32.3335 10.3334C31.2289 10.3334 30.3335 11.2288 30.3335 12.3334C30.3335 13.4379 31.2289 14.3334 32.3335 14.3334Z" fill="#F28A39"/>
<path d="M48 16C49.1046 16 50 15.1046 50 14C50 12.8954 49.1046 12 48 12C46.8954 12 46 12.8954 46 14C46 15.1046 46.8954 16 48 16Z" fill="#F28A39"/>
<path d="M46 20C47.1046 20 48 19.1046 48 18C48 16.8954 47.1046 16 46 16C44.8954 16 44 16.8954 44 18C44 19.1046 44.8954 20 46 20Z" fill="#F28A39"/>
<path d="M52 24C53.1046 24 54 23.1046 54 22C54 20.8954 53.1046 20 52 20C50.8954 20 50 20.8954 50 22C50 23.1046 50.8954 24 52 24Z" fill="#F28A39"/>
<path d="M34 18C35.1046 18 36 17.1046 36 16C36 14.8954 35.1046 14 34 14C32.8954 14 32 14.8954 32 16C32 17.1046 32.8954 18 34 18Z" fill="#F28A39"/>
<path d="M50 33C51.1046 33 52 32.1046 52 31C52 29.8954 51.1046 29 50 29C48.8954 29 48 29.8954 48 31C48 32.1046 48.8954 33 50 33Z" fill="#F28A39"/>
<path d="M56 32C57.1046 32 58 31.1046 58 30C58 28.8954 57.1046 28 56 28C54.8954 28 54 28.8954 54 30C54 31.1046 54.8954 32 56 32Z" fill="#F28A39"/>
<path d="M55 26C55.5523 26 56 25.5523 56 25C56 24.4477 55.5523 24 55 24C54.4477 24 54 24.4477 54 25C54 25.5523 54.4477 26 55 26Z" fill="#F28A39"/>
<path d="M47 24C47.5523 24 48 23.5523 48 23C48 22.4477 47.5523 22 47 22C46.4477 22 46 22.4477 46 23C46 23.5523 46.4477 24 47 24Z" fill="#F28A39"/>
<path d="M41 20C41.5523 20 42 19.5523 42 19C42 18.4477 41.5523 18 41 18C40.4477 18 40 18.4477 40 19C40 19.5523 40.4477 20 41 20Z" fill="#F28A39"/>
<path d="M33 10C33.5523 10 34 9.55228 34 9C34 8.44772 33.5523 8 33 8C32.4477 8 32 8.44772 32 9C32 9.55228 32.4477 10 33 10Z" fill="#F28A39"/>
<path d="M32 6V32H6C6 17.6406 17.6406 6 32 6Z" fill="#4B8C41"/>
<path d="M16 33.6666C18.2091 33.6666 20 31.8758 20 29.6666C20 27.4575 18.2091 25.6666 16 25.6666C13.7909 25.6666 12 27.4575 12 29.6666C12 31.8758 13.7909 33.6666 16 33.6666Z" fill="#69A041"/>
<path d="M20 24C22.2091 24 24 22.2091 24 20C24 17.7909 22.2091 16 20 16C17.7909 16 16 17.7909 16 20C16 22.2091 17.7909 24 20 24Z" fill="#69A041"/>
<path d="M12.6665 24.3334C14.8756 24.3334 16.6665 22.5425 16.6665 20.3334C16.6665 18.1242 14.8756 16.3334 12.6665 16.3334C10.4574 16.3334 8.6665 18.1242 8.6665 20.3334C8.6665 22.5425 10.4574 24.3334 12.6665 24.3334Z" fill="#69A041"/>
<path d="M9 32.6666C10.6569 32.6666 12 31.3235 12 29.6666C12 28.0098 10.6569 26.6666 9 26.6666C7.34315 26.6666 6 28.0098 6 29.6666C6 31.3235 7.34315 32.6666 9 32.6666Z" fill="#69A041"/>
<path d="M18.6665 15.3334C20.3234 15.3334 21.6665 13.9902 21.6665 12.3334C21.6665 10.6765 20.3234 9.33337 18.6665 9.33337C17.0096 9.33337 15.6665 10.6765 15.6665 12.3334C15.6665 13.9902 17.0096 15.3334 18.6665 15.3334Z" fill="#69A041"/>
<path d="M25 17.3334C26.6569 17.3334 28 15.9902 28 14.3334C28 12.6765 26.6569 11.3334 25 11.3334C23.3431 11.3334 22 12.6765 22 14.3334C22 15.9902 23.3431 17.3334 25 17.3334Z" fill="#69A041"/>
<path d="M29 14C31.2091 14 33 12.2091 33 10C33 7.79086 31.2091 6 29 6C26.7909 6 25 7.79086 25 10C25 12.2091 26.7909 14 29 14Z" fill="#69A041"/>
<path d="M14 25.8334C15.1046 25.8334 16 24.9379 16 23.8334C16 22.7288 15.1046 21.8334 14 21.8334C12.8954 21.8334 12 22.7288 12 23.8334C12 24.9379 12.8954 25.8334 14 25.8334Z" fill="#91B945"/>
<path d="M9.6665 27C10.7711 27 11.6665 26.1046 11.6665 25C11.6665 23.8954 10.7711 23 9.6665 23C8.56193 23 7.6665 23.8954 7.6665 25C7.6665 26.1046 8.56193 27 9.6665 27Z" fill="#69A041"/>
<path d="M11.6665 33C12.7711 33 13.6665 32.1046 13.6665 31C13.6665 29.8954 12.7711 29 11.6665 29C10.5619 29 9.6665 29.8954 9.6665 31C9.6665 32.1046 10.5619 33 11.6665 33Z" fill="#69A041"/>
<path d="M14 18C15.1046 18 16 17.1046 16 16C16 14.8954 15.1046 14 14 14C12.8954 14 12 14.8954 12 16C12 17.1046 12.8954 18 14 18Z" fill="#91B945"/>
<path d="M29.6665 19.6666C30.7711 19.6666 31.6665 18.7712 31.6665 17.6666C31.6665 16.5621 30.7711 15.6666 29.6665 15.6666C28.5619 15.6666 27.6665 16.5621 27.6665 17.6666C27.6665 18.7712 28.5619 19.6666 29.6665 19.6666Z" fill="#91B945"/>
<path d="M18 20C19.1046 20 20 19.1046 20 18C20 16.8954 19.1046 16 18 16C16.8954 16 16 16.8954 16 18C16 19.1046 16.8954 20 18 20Z" fill="#69A041"/>
<path d="M22 14C23.1046 14 24 13.1046 24 12C24 10.8954 23.1046 10 22 10C20.8954 10 20 10.8954 20 12C20 13.1046 20.8954 14 22 14Z" fill="#91B945"/>
<path d="M16 32C17.1046 32 18 31.1046 18 30C18 28.8954 17.1046 28 16 28C14.8954 28 14 28.8954 14 30C14 31.1046 14.8954 32 16 32Z" fill="#91B945"/>
<path d="M26 17.3334C27.1046 17.3334 28 16.4379 28 15.3334C28 14.2288 27.1046 13.3334 26 13.3334C24.8954 13.3334 24 14.2288 24 15.3334C24 16.4379 24.8954 17.3334 26 17.3334Z" fill="#69A041"/>
<path d="M31 10C32.1046 10 33 9.10457 33 8C33 6.89543 32.1046 6 31 6C29.8954 6 29 6.89543 29 8C29 9.10457 29.8954 10 31 10Z" fill="#91B945"/>
<path d="M25 10C25.5523 10 26 9.55228 26 9C26 8.44772 25.5523 8 25 8C24.4477 8 24 8.44772 24 9C24 9.55228 24.4477 10 25 10Z" fill="#91B945"/>
<path d="M23 18C23.5523 18 24 17.5523 24 17C24 16.4477 23.5523 16 23 16C22.4477 16 22 16.4477 22 17C22 17.5523 22.4477 18 23 18Z" fill="#91B945"/>
<path d="M19 24C19.5523 24 20 23.5523 20 23C20 22.4477 19.5523 22 19 22C18.4477 22 18 22.4477 18 23C18 23.5523 18.4477 24 19 24Z" fill="#91B945"/>
<path d="M9 32C9.55228 32 10 31.5523 10 31C10 30.4477 9.55228 30 9 30C8.44772 30 8 30.4477 8 31C8 31.5523 8.44772 32 9 32Z" fill="#91B945"/>
<path d="M34 50C42.8366 50 50 42.8366 50 34C50 25.1634 42.8366 18 34 18C25.1634 18 18 25.1634 18 34C18 42.8366 25.1634 50 34 50Z" fill="#D7E6F0"/>
<path d="M19 35C19.5523 35 20 34.5522 20 34C20 26.2804 26.2804 20 34 20C34.5522 20 35 19.5523 35 19C35 18.4477 34.5522 18 34 18C25.1635 18 18 25.1635 18 34C18 34.5522 18.4477 35 19 35Z" fill="white"/>
<path d="M32 40C36.4183 40 40 36.4183 40 32C40 27.5817 36.4183 24 32 24C27.5817 24 24 27.5817 24 32C24 36.4183 27.5817 40 32 40Z" fill="#FAA019"/>
<path d="M25 33C25.5523 33 26 32.5522 26 32C26 28.6916 28.6916 26 32 26C32.5522 26 33 25.5523 33 25C33 24.4477 32.5522 24 32 24C27.5817 24 24 27.5817 24 32C24 32.5522 24.4477 33 25 33Z" fill="#FFD205"/>
<path d="M29 12.6666C30.1046 12.6666 31 11.7712 31 10.6666C31 9.56206 30.1046 8.66663 29 8.66663C27.8954 8.66663 27 9.56206 27 10.6666C27 11.7712 27.8954 12.6666 29 12.6666Z" fill="#69A041"/>
<path d="M19.6665 16.3334C20.7711 16.3334 21.6665 15.4379 21.6665 14.3334C21.6665 13.2288 20.7711 12.3334 19.6665 12.3334C18.5619 12.3334 17.6665 13.2288 17.6665 14.3334C17.6665 15.4379 18.5619 16.3334 19.6665 16.3334Z" fill="#69A041"/>
<path d="M14.6665 23.6666C15.7711 23.6666 16.6665 22.7712 16.6665 21.6666C16.6665 20.5621 15.7711 19.6666 14.6665 19.6666C13.5619 19.6666 12.6665 20.5621 12.6665 21.6666C12.6665 22.7712 13.5619 23.6666 14.6665 23.6666Z" fill="#69A041"/>
<path d="M31.3335 17.3334C32.4381 17.3334 33.3335 16.4379 33.3335 15.3334C33.3335 14.2288 32.4381 13.3334 31.3335 13.3334C30.2289 13.3334 29.3335 14.2288 29.3335 15.3334C29.3335 16.4379 30.2289 17.3334 31.3335 17.3334Z" fill="#69A041"/>
<path d="M55 38C55.5523 38 56 37.5523 56 37C56 36.4477 55.5523 36 55 36C54.4477 36 54 36.4477 54 37C54 37.5523 54.4477 38 55 38Z" fill="#D7E6F0"/>
<path d="M53 42C53.5523 42 54 41.5523 54 41C54 40.4477 53.5523 40 53 40C52.4477 40 52 40.4477 52 41C52 41.5523 52.4477 42 53 42Z" fill="#D7E6F0"/>
<path d="M35 54C35.5523 54 36 53.5523 36 53C36 52.4477 35.5523 52 35 52C34.4477 52 34 52.4477 34 53C34 53.5523 34.4477 54 35 54Z" fill="#D7E6F0"/>
<path d="M45 52C45.5523 52 46 51.5523 46 51C46 50.4477 45.5523 50 45 50C44.4477 50 44 50.4477 44 51C44 51.5523 44.4477 52 45 52Z" fill="#D7E6F0"/>
<path d="M52 37C52.5523 37 53 36.5523 53 36C53 35.4477 52.5523 35 52 35C51.4477 35 51 35.4477 51 36C51 36.5523 51.4477 37 52 37Z" fill="#D7E6F0"/>
<path d="M41.5171 23.0008C41.7932 23.0008 42.0171 22.7769 42.0171 22.5008C42.0171 22.2246 41.7932 22.0008 41.5171 22.0008C41.2409 22.0008 41.0171 22.2246 41.0171 22.5008C41.0171 22.7769 41.2409 23.0008 41.5171 23.0008Z" fill="#5FAA46"/>
<path d="M37.2456 25.6988C37.5217 25.6988 37.7456 25.4749 37.7456 25.1988C37.7456 24.9226 37.5217 24.6988 37.2456 24.6988C36.9695 24.6988 36.7456 24.9226 36.7456 25.1988C36.7456 25.4749 36.9695 25.6988 37.2456 25.6988Z" fill="#5FAA46"/>
<path d="M33.062 19.5401C33.3382 19.5401 33.562 19.3163 33.562 19.0401C33.562 18.764 33.3382 18.5401 33.062 18.5401C32.7859 18.5401 32.562 18.764 32.562 19.0401C32.562 19.3163 32.7859 19.5401 33.062 19.5401Z" fill="#5FAA46"/>
<path d="M26.4497 24.9113C26.7258 24.9113 26.9497 24.6874 26.9497 24.4113C26.9497 24.1351 26.7258 23.9113 26.4497 23.9113C26.1736 23.9113 25.9497 24.1351 25.9497 24.4113C25.9497 24.6874 26.1736 24.9113 26.4497 24.9113Z" fill="#5FAA46"/>
<path d="M23.2607 23.0601C23.5369 23.0601 23.7607 22.8363 23.7607 22.5601C23.7607 22.284 23.5369 22.0601 23.2607 22.0601C22.9846 22.0601 22.7607 22.284 22.7607 22.5601C22.7607 22.8363 22.9846 23.0601 23.2607 23.0601Z" fill="#5FAA46"/>
<path d="M30.4009 20.089C30.677 20.089 30.9009 19.8651 30.9009 19.589C30.9009 19.3128 30.677 19.089 30.4009 19.089C30.1247 19.089 29.9009 19.3128 29.9009 19.589C29.9009 19.8651 30.1247 20.089 30.4009 20.089Z" fill="#5FAA46"/>
<path d="M23.5752 36.6116C23.8513 36.6116 24.0752 36.3878 24.0752 36.1116C24.0752 35.8355 23.8513 35.6116 23.5752 35.6116C23.2991 35.6116 23.0752 35.8355 23.0752 36.1116C23.0752 36.3878 23.2991 36.6116 23.5752 36.6116Z" fill="#5FAA46"/>
<path d="M19.167 34.9099C19.4431 34.9099 19.667 34.686 19.667 34.4099C19.667 34.1337 19.4431 33.9099 19.167 33.9099C18.8908 33.9099 18.667 34.1337 18.667 34.4099C18.667 34.686 18.8908 34.9099 19.167 34.9099Z" fill="#5FAA46"/>
<path d="M22.4648 28.1422C22.741 28.1422 22.9648 27.9184 22.9648 27.6422C22.9648 27.3661 22.741 27.1422 22.4648 27.1422C22.1887 27.1422 21.9648 27.3661 21.9648 27.6422C21.9648 27.9184 22.1887 28.1422 22.4648 28.1422Z" fill="#5FAA46"/>
<path d="M39.5688 38.163C39.845 38.163 40.0688 37.9391 40.0688 37.663C40.0688 37.3869 39.845 37.163 39.5688 37.163C39.2927 37.163 39.0688 37.3869 39.0688 37.663C39.0688 37.9391 39.2927 38.163 39.5688 38.163Z" fill="#5FAA46"/>
<path d="M33.2656 34.7366C33.5418 34.7366 33.7656 34.5128 33.7656 34.2366C33.7656 33.9605 33.5418 33.7366 33.2656 33.7366C32.9895 33.7366 32.7656 33.9605 32.7656 34.2366C32.7656 34.5128 32.9895 34.7366 33.2656 34.7366Z" fill="#5FAA46"/>
<path d="M34.2974 29.6852C34.5735 29.6852 34.7974 29.4614 34.7974 29.1852C34.7974 28.9091 34.5735 28.6852 34.2974 28.6852C34.0212 28.6852 33.7974 28.9091 33.7974 29.1852C33.7974 29.4614 34.0212 29.6852 34.2974 29.6852Z" fill="#5FAA46"/>
<path d="M45.5679 35.7639C45.844 35.7639 46.0679 35.54 46.0679 35.2639C46.0679 34.9877 45.844 34.7639 45.5679 34.7639C45.2917 34.7639 45.0679 34.9877 45.0679 35.2639C45.0679 35.54 45.2917 35.7639 45.5679 35.7639Z" fill="#5FAA46"/>
<path d="M39.0991 31.3248C39.3753 31.3248 39.5991 31.1009 39.5991 30.8248C39.5991 30.5486 39.3753 30.3248 39.0991 30.3248C38.823 30.3248 38.5991 30.5486 38.5991 30.8248C38.5991 31.1009 38.823 31.3248 39.0991 31.3248Z" fill="#5FAA46"/>
<path d="M44.6118 28.828C44.888 28.828 45.1118 28.6041 45.1118 28.328C45.1118 28.0519 44.888 27.828 44.6118 27.828C44.3357 27.828 44.1118 28.0519 44.1118 28.328C44.1118 28.6041 44.3357 28.828 44.6118 28.828Z" fill="#5FAA46"/>
<path d="M25.5522 44.6665C25.8284 44.6665 26.0522 44.4426 26.0522 44.1665C26.0522 43.8904 25.8284 43.6665 25.5522 43.6665C25.2761 43.6665 25.0522 43.8904 25.0522 44.1665C25.0522 44.4426 25.2761 44.6665 25.5522 44.6665Z" fill="#5FAA46"/>
<path d="M22.5239 42.7596C22.8001 42.7596 23.0239 42.5358 23.0239 42.2596C23.0239 41.9835 22.8001 41.7596 22.5239 41.7596C22.2478 41.7596 22.0239 41.9835 22.0239 42.2596C22.0239 42.5358 22.2478 42.7596 22.5239 42.7596Z" fill="#5FAA46"/>
<path d="M28.3066 35.6086C28.5828 35.6086 28.8066 35.3848 28.8066 35.1086C28.8066 34.8325 28.5828 34.6086 28.3066 34.6086C28.0305 34.6086 27.8066 34.8325 27.8066 35.1086C27.8066 35.3848 28.0305 35.6086 28.3066 35.6086Z" fill="#5FAA46"/>
<path d="M35.3481 44.3194C35.6243 44.3194 35.8481 44.0955 35.8481 43.8194C35.8481 43.5432 35.6243 43.3194 35.3481 43.3194C35.072 43.3194 34.8481 43.5432 34.8481 43.8194C34.8481 44.0955 35.072 44.3194 35.3481 44.3194Z" fill="#5FAA46"/>
<path d="M36.1948 41.1537C36.471 41.1537 36.6948 40.9299 36.6948 40.6537C36.6948 40.3776 36.471 40.1537 36.1948 40.1537C35.9187 40.1537 35.6948 40.3776 35.6948 40.6537C35.6948 40.9299 35.9187 41.1537 36.1948 41.1537Z" fill="#5FAA46"/>
<path d="M41.3081 41.8221C41.5842 41.8221 41.8081 41.5983 41.8081 41.3221C41.8081 41.046 41.5842 40.8221 41.3081 40.8221C41.032 40.8221 40.8081 41.046 40.8081 41.3221C40.8081 41.5983 41.032 41.8221 41.3081 41.8221Z" fill="#5FAA46"/>
</svg>
