<svg width="21" height="20" viewBox="0 0 21 20" fill="none" xmlns="http://www.w3.org/2000/svg">
<path d="M2.5 9.11108C2.5 13.5555 6.05556 17.1111 10.5 17.1111C14.8889 17.1111 18.5 13.5555 18.5 9.11108V10.8889C18.5 15.3333 14.9444 18.8889 10.5 18.8889C6.11111 18.8889 2.5 15.3333 2.5 10.8889V9.11108Z" fill="#FFB961"/>
<path d="M2.5 9.11108C2.5 13.5555 6.05556 17.1111 10.5 17.1111C14.8889 17.1111 18.5 13.5555 18.5 9.11108V10.8889C18.5 15.3333 14.9444 18.8889 10.5 18.8889C6.11111 18.8889 2.5 15.3333 2.5 10.8889V9.11108Z" fill="#F3A250"/>
<g opacity="0.6">
<path d="M10.5002 17.1111C8.88911 17.1111 7.33355 16.6111 6.11133 15.7778V17.5555C7.38911 18.3889 8.88911 18.8889 10.5002 18.8889C14.8891 18.8889 18.5002 15.3333 18.5002 10.8889V9.11108C18.5002 13.5 14.8891 17.1111 10.5002 17.1111Z" fill="#EF7B56"/>
</g>
<path d="M11.8887 16.9444V18.7222C15.6109 18.0555 18.4998 14.7778 18.4998 10.8333V9.05554C18.4998 13.0555 15.6664 16.2778 11.8887 16.9444Z" fill="#F3A250"/>
<g opacity="0.6">
<path d="M16.3887 14.5V16.2778C17.722 14.8333 18.4998 12.9444 18.4998 10.8889V9.11108C18.4998 11.1666 17.6664 13.0555 16.3887 14.5Z" fill="#EF7B56"/>
</g>
<path d="M18.5 9.11108C18.5 13.5555 14.9444 17.1111 10.5 17.1111C6.49999 17.1111 3.22222 14.2222 2.61111 10.3889C1.83333 5.61108 5.49999 1.11108 10.5 1.11108C13.8889 1.11108 16.8333 3.2222 17.9444 6.27775C18.3333 7.11108 18.5 8.11108 18.5 9.11108Z" fill="#F9CF6B"/>
<g opacity="0.4">
<path d="M4.44434 13.1666C6.05545 15.1111 8.27767 16.1111 10.4999 16.1111C12.7221 16.1111 14.9443 15.1111 16.5554 13.1111C15.4443 15.1111 13.2221 16.5555 10.4999 16.6111C7.83322 16.6111 5.55545 15.1111 4.44434 13.1666Z" fill="white"/>
</g>
<g opacity="0.2">
<path d="M17.2782 6.16662C15.8893 3.49995 13.2782 1.9444 10.5004 1.9444C7.72266 1.9444 5.11155 3.49995 3.72266 6.11106C4.61155 3.55551 7.27821 1.49995 10.5004 1.4444C13.7227 1.49995 16.3338 3.55551 17.2782 6.16662Z" fill="white"/>
</g>
<g opacity="0.4">
<path d="M4.44434 13.1666C6.05545 15.1111 8.27767 16.1111 10.4999 16.1111C12.7221 16.1111 14.9443 15.1111 16.5554 13.1111C15.4443 15.1111 13.2221 16.5555 10.4999 16.6111C7.83322 16.6111 5.55545 15.1111 4.44434 13.1666Z" fill="white"/>
</g>
<path d="M16.5554 9.1111C16.5554 12.4444 13.8332 15.1667 10.4999 15.1667C7.16656 15.1667 4.44434 12.4444 4.44434 9.1111C4.44434 5.77776 7.16656 3.05554 10.4999 3.05554C13.8332 3.05554 16.5554 5.77776 16.5554 9.1111Z" fill="#F3A250"/>
<path d="M12.4998 9.99996L12.8332 12.1111C12.8887 12.4444 12.5554 12.6666 12.2776 12.5555L10.3887 11.5555C10.2776 11.5 10.1109 11.5 9.99984 11.5555L8.11095 12.5555C7.83317 12.7222 7.49984 12.4444 7.55539 12.1111L7.88873 9.99996C7.88873 9.88885 7.88873 9.72218 7.77761 9.66663L6.22206 8.16663C5.99984 7.9444 6.11095 7.55552 6.44428 7.49996L8.55539 7.16663C8.6665 7.16663 8.77761 7.05552 8.83317 6.9444L9.83317 4.99996C9.99984 4.72218 10.3887 4.72218 10.5554 4.99996L11.4998 6.9444C11.5554 7.05552 11.6665 7.16663 11.7776 7.16663L13.8887 7.49996C14.2221 7.55552 14.3332 7.9444 14.1109 8.16663L12.5554 9.66663C12.4998 9.72218 12.4443 9.88885 12.4998 9.99996Z" fill="#EF7B56"/>
<path d="M15.9445 11.7222C17.5556 7.88888 14.7222 3.55554 10.5 3.55554C6.33336 3.55554 3.44447 7.77776 5.00003 11.6667C3.16669 7.66665 6.05558 3.05554 10.5 3.05554C15 3.05554 17.8889 7.77776 15.9445 11.7222Z" fill="#EF7B56"/>
<path d="M12.8338 10.3333L13.1672 12.4444C13.2227 12.7778 12.8894 13 12.6116 12.8889L10.7227 11.8889C10.6116 11.8333 10.4449 11.8333 10.3338 11.8889L8.44493 12.8889C8.16715 13.0556 7.83382 12.7778 7.88938 12.4444L8.22271 10.3333C8.22271 10.2222 8.22271 10.0556 8.1116 10L6.55604 8.5C6.33382 8.27778 6.44493 7.88889 6.77827 7.83333L8.88938 7.5C9.00049 7.5 9.1116 7.38889 9.16715 7.27778L10.1116 5.33333C10.2783 5.05556 10.6672 5.05556 10.8338 5.33333L11.7783 7.27778C11.8338 7.38889 11.9449 7.5 12.056 7.5L14.1672 7.83333C14.5005 7.88889 14.6116 8.27778 14.3894 8.5L12.9449 10C12.8338 10.0556 12.7783 10.2222 12.8338 10.3333Z" fill="#F9CF6B"/>
<g opacity="0.5">
<path d="M6.94471 8.55551C6.72249 8.33329 6.8336 7.99995 7.16694 7.9444L9.05583 7.66662C9.16694 7.66662 9.27805 7.55551 9.3336 7.49995L10.1669 5.77773C10.278 5.49995 10.6669 5.49995 10.778 5.77773L11.6114 7.49995C11.6669 7.61106 11.778 7.66662 11.8892 7.66662L13.778 7.9444C14.0558 7.99995 14.1669 8.33329 14.0003 8.55551C14.0003 8.55551 12.778 9.88884 10.3892 9.88884C8.55583 9.88884 6.94471 8.55551 6.94471 8.55551Z" fill="white"/>
</g>
<g opacity="0.7">
<path d="M10.5553 6.94442C10.3886 7.3333 10.1108 7.61108 9.99972 7.55553C9.88861 7.49997 9.83305 7.11108 9.99972 6.72219C10.1664 6.33331 10.4442 6.05553 10.5553 6.11108C10.6664 6.16664 10.7219 6.55553 10.5553 6.94442Z" fill="white"/>
</g>
<path d="M7.44423 5.16666C7.27756 5.16666 7.16645 5.22222 7.05534 5.27777C7.11089 5.33333 7.55534 5.77777 7.49978 5.83333C7.44423 5.88888 6.99978 5.44444 6.94423 5.38888C6.88867 5.49999 6.83312 5.6111 6.83312 5.77777C6.83312 6.38888 6.77756 6.77777 6.66645 6.77777C6.61089 6.77777 6.55534 6.38888 6.49978 5.77777C6.49978 5.6111 6.44423 5.49999 6.38867 5.38888C6.33312 5.44444 5.88867 5.88888 5.83312 5.83333C5.77756 5.77777 6.22201 5.33333 6.27756 5.27777C6.16645 5.22222 6.05534 5.16666 5.88867 5.16666C4.55534 5.1111 4.55534 4.94444 5.88867 4.88888C5.99978 4.88888 6.16645 4.83333 6.27756 4.77777C6.22201 4.72222 5.77756 4.27777 5.83312 4.22222C5.88867 4.16666 6.33312 4.6111 6.38867 4.66666C6.44423 4.55555 6.49978 4.44444 6.49978 4.27777C6.55534 2.94444 6.72201 2.94444 6.77756 4.27777C6.77756 4.38888 6.83312 4.55555 6.88867 4.66666C6.94423 4.6111 7.38867 4.16666 7.44423 4.22222C7.49978 4.27777 7.33312 4.49999 7.05534 4.77777V4.83333C7.16645 4.88888 7.27756 4.94444 7.44423 4.94444C8.05534 4.94444 8.44423 4.99999 8.44423 5.1111C8.44423 5.1111 8.05534 5.16666 7.44423 5.16666Z" fill="white"/>
<g opacity="0.2">
<path d="M17.2782 6.16662C15.8893 3.49995 13.2782 1.9444 10.5004 1.9444C7.72266 1.9444 5.11155 3.49995 3.72266 6.11106C4.61155 3.55551 7.27821 1.49995 10.5004 1.4444C13.7227 1.49995 16.3338 3.55551 17.2782 6.16662Z" fill="white"/>
</g>
</svg>
