<svg width="64" height="64" viewBox="0 0 64 64" fill="none" xmlns="http://www.w3.org/2000/svg">
<path d="M20 32H44V50H20V32Z" fill="#A5C3DC"/>
<path d="M33 8H31C23.268 8 17 14.268 17 22C17 27.5229 21.4771 32 27 32H37C42.5229 32 47 27.5229 47 22C47 14.268 40.732 8 33 8Z" fill="#5FAA46"/>
<path d="M4 50H60C61.1046 50 62 50.8954 62 52C62 53.1046 61.1046 54 60 54H4C2.89538 54 2 53.1046 2 52C2 50.8954 2.89538 50 4 50Z" fill="#D7E6F0"/>
<path d="M9.6665 54H54.3331L51.149 56.9393C50.4101 57.6213 49.4415 58 48.4359 58H15.5638C14.5583 58 13.5895 57.6213 12.8506 56.9393L9.6665 54Z" fill="#A5C3DC"/>
<path d="M18 26H16C8.268 26 2 32.268 2 40C2 45.5229 6.47713 50 12 50H22C27.5229 50 32 45.5229 32 40C32 32.268 25.732 26 18 26Z" fill="#FF6955"/>
<path d="M48 26H46C38.268 26 32 32.268 32 40C32 45.5229 36.4771 50 42 50H52C57.5229 50 62 45.5229 62 40C62 32.268 55.732 26 48 26Z" fill="#FAA019"/>
<path d="M2 40H11C14.3138 40 17 37.3138 17 34V26H16C8.268 26 2 32.268 2 40Z" fill="#FF8773"/>
<path d="M32 40H41C44.3138 40 47 37.3138 47 34V26H46C38.268 26 32 32.268 32 40Z" fill="#FFD23C"/>
<path d="M17 22H26C29.3138 22 32 19.3138 32 16V8H31C23.268 8 17 14.268 17 22Z" fill="#AFD763"/>
<path d="M12 48C7.58875 48 4 44.4113 4 40C4 33.3831 9.38312 28 16 28H18C24.6169 28 30 33.3831 30 40C30 44.4113 26.4113 48 22 48H12Z" fill="#A55023"/>
<path d="M16.6665 40.6666C17.2188 40.6666 17.6665 40.2189 17.6665 39.6666C17.6665 39.1143 17.2188 38.6666 16.6665 38.6666C16.1142 38.6666 15.6665 39.1143 15.6665 39.6666C15.6665 40.2189 16.1142 40.6666 16.6665 40.6666Z" fill="#8C3C14"/>
<path d="M18.5 36.6666C18.7761 36.6666 19 36.4428 19 36.1666C19 35.8905 18.7761 35.6666 18.5 35.6666C18.2239 35.6666 18 35.8905 18 36.1666C18 36.4428 18.2239 36.6666 18.5 36.6666Z" fill="#8C3C14"/>
<path d="M11.6665 34.3334C12.2188 34.3334 12.6665 33.8857 12.6665 33.3334C12.6665 32.7811 12.2188 32.3334 11.6665 32.3334C11.1142 32.3334 10.6665 32.7811 10.6665 33.3334C10.6665 33.8857 11.1142 34.3334 11.6665 34.3334Z" fill="#8C3C14"/>
<path d="M9.8335 37.3334C10.1096 37.3334 10.3335 37.1095 10.3335 36.8334C10.3335 36.5572 10.1096 36.3334 9.8335 36.3334C9.55735 36.3334 9.3335 36.5572 9.3335 36.8334C9.3335 37.1095 9.55735 37.3334 9.8335 37.3334Z" fill="#8C3C14"/>
<path d="M21.5 33C21.7761 33 22 32.7761 22 32.5C22 32.2239 21.7761 32 21.5 32C21.2239 32 21 32.2239 21 32.5C21 32.7761 21.2239 33 21.5 33Z" fill="#8C3C14"/>
<path d="M9.5 42.3334C9.77614 42.3334 10 42.1095 10 41.8334C10 41.5572 9.77614 41.3334 9.5 41.3334C9.22386 41.3334 9 41.5572 9 41.8334C9 42.1095 9.22386 42.3334 9.5 42.3334Z" fill="#8C3C14"/>
<path d="M18.5 45C18.7761 45 19 44.7761 19 44.5C19 44.2239 18.7761 44 18.5 44C18.2239 44 18 44.2239 18 44.5C18 44.7761 18.2239 45 18.5 45Z" fill="#8C3C14"/>
<path d="M25.1665 37C25.4426 37 25.6665 36.7761 25.6665 36.5C25.6665 36.2239 25.4426 36 25.1665 36C24.8904 36 24.6665 36.2239 24.6665 36.5C24.6665 36.7761 24.8904 37 25.1665 37Z" fill="#8C3C14"/>
<path d="M25 41.3334C25.5523 41.3334 26 40.8857 26 40.3334C26 39.7811 25.5523 39.3334 25 39.3334C24.4477 39.3334 24 39.7811 24 40.3334C24 40.8857 24.4477 41.3334 25 41.3334Z" fill="#8C3C14"/>
<path d="M23.1665 44.3334C23.4426 44.3334 23.6665 44.1095 23.6665 43.8334C23.6665 43.5572 23.4426 43.3334 23.1665 43.3334C22.8904 43.3334 22.6665 43.5572 22.6665 43.8334C22.6665 44.1095 22.8904 44.3334 23.1665 44.3334Z" fill="#8C3C14"/>
</svg>
