<svg width="64" height="64" viewBox="0 0 64 64" fill="none" xmlns="http://www.w3.org/2000/svg">
<path d="M60.6098 18.2074L47.6098 8.20737C47.3358 7.99649 46.9724 7.94212 46.6488 8.06374C46.3252 8.18512 46.0872 8.46499 46.0194 8.80387L43.0194 23.8039C42.9502 24.1501 43.0687 24.5071 43.3312 24.7434C43.5173 24.9109 43.7564 25 44.0002 25C44.0999 25 44.2004 24.9851 44.2983 24.9545L60.2983 19.9545C60.6546 19.8432 60.9191 19.5429 60.9846 19.1755C61.0499 18.8081 60.9056 18.4349 60.6098 18.2074Z" fill="#FAA019"/>
<path d="M51 15.9999C51.5523 15.9999 52 15.5522 52 14.9999C52 14.4476 51.5523 13.9999 51 13.9999C50.4477 13.9999 50 14.4476 50 14.9999C50 15.5522 50.4477 15.9999 51 15.9999Z" fill="#F06423"/>
<path d="M55.5 20C55.7761 20 56 19.7761 56 19.5C56 19.2239 55.7761 19 55.5 19C55.2239 19 55 19.2239 55 19.5C55 19.7761 55.2239 20 55.5 20Z" fill="#F06423"/>
<path d="M47.5 16C47.7761 16 48 15.7761 48 15.5C48 15.2239 47.7761 15 47.5 15C47.2239 15 47 15.2239 47 15.5C47 15.7761 47.2239 16 47.5 16Z" fill="#F06423"/>
<path d="M56 26C55.2547 26 54.5576 26.2044 53.9603 26.5594C53.9859 26.3765 54 26.19 54 26C54 23.7909 52.2091 22 50 22C49.2605 22 48.5685 22.2014 47.9743 22.5513C47.7511 20.5535 46.0574 19 44 19C43.0202 19 42.1231 19.3528 41.4276 19.9376C40.7276 18.7766 39.4546 18 38 18C37.1763 18 36.4109 18.2493 35.7746 18.676C35.2281 17.1178 33.745 16 32 16C30.255 16 28.7719 17.1178 28.2254 18.676C27.5891 18.2493 26.8237 18 26 18C24.5454 18 23.2724 18.7766 22.5724 19.9376C21.8769 19.3528 20.9797 19 20 19C17.9426 19 16.2489 20.5535 16.0257 22.5513C15.4315 22.2014 14.7395 22 14 22C11.7909 22 10 23.7909 10 26C10 26.19 10.0141 26.3765 10.0398 26.5594C9.44238 26.2044 8.74525 26 8 26C5.79087 26 4 27.7909 4 30C4 32.2091 5.79087 34 8 34C10.2091 34 53.7909 34 56 34C58.2091 34 60 32.2091 60 30C60 27.7909 58.2091 26 56 26Z" fill="#5FAA46"/>
<path d="M35.4635 34C35.8041 33.4115 36 32.7289 36 32C36 30.8049 35.4753 29.733 34.6444 29C35.4753 28.267 36 27.1951 36 26C36 24.8049 35.4753 23.733 34.6444 23C35.4753 22.267 36 21.1951 36 20C36 17.7909 34.2091 16 32 16C30.255 16 28.7719 17.1178 28.2254 18.676C27.5891 18.2493 26.8237 18 26 18C24.5454 18 23.2724 18.7766 22.5724 19.9376C21.8769 19.3528 20.9797 19 20 19C17.9426 19 16.2489 20.5535 16.0257 22.5513C15.4315 22.2014 14.7395 22 14 22C11.7909 22 10 23.7909 10 26C10 26.19 10.0141 26.3765 10.0398 26.5594C9.44238 26.2044 8.74525 26 8 26C5.79087 26 4 27.7909 4 30C4 32.2091 5.79087 34 8 34H35.4635Z" fill="#91C83C"/>
<path d="M46 50H18C9.1635 50 2 42.8366 2 34C2 32.8954 2.89538 32 4 32H60C61.1046 32 62 32.8954 62 34C62 42.8366 54.8366 50 46 50Z" fill="#463C4B"/>
<path d="M40 34C40 32.8955 39.1045 32 38 32H4C2.89538 32 2 32.8955 2 34C2 42.8365 9.1635 50 18 50H24C32.8365 50 40 42.8365 40 34Z" fill="#555A6E"/>
<path d="M44 54H20C18.8954 54 18 53.1046 18 52V50H46V52C46 53.1046 45.1046 54 44 54Z" fill="#463C4B"/>
<path d="M13 39.3334C13.5523 39.3334 14 38.8857 14 38.3334C14 37.7811 13.5523 37.3334 13 37.3334C12.4477 37.3334 12 37.7811 12 38.3334C12 38.8857 12.4477 39.3334 13 39.3334Z" fill="#463C4B"/>
<path d="M24.6665 47.3334C25.2188 47.3334 25.6665 46.8857 25.6665 46.3334C25.6665 45.7811 25.2188 45.3334 24.6665 45.3334C24.1142 45.3334 23.6665 45.7811 23.6665 46.3334C23.6665 46.8857 24.1142 47.3334 24.6665 47.3334Z" fill="#463C4B"/>
<path d="M14.5 36.3334C14.7761 36.3334 15 36.1095 15 35.8334C15 35.5572 14.7761 35.3334 14.5 35.3334C14.2239 35.3334 14 35.5572 14 35.8334C14 36.1095 14.2239 36.3334 14.5 36.3334Z" fill="#463C4B"/>
<path d="M26.5 43.3334C26.7761 43.3334 27 43.1095 27 42.8334C27 42.5572 26.7761 42.3334 26.5 42.3334C26.2239 42.3334 26 42.5572 26 42.8334C26 43.1095 26.2239 43.3334 26.5 43.3334Z" fill="#463C4B"/>
<path d="M52.8652 41.9107C53.4175 41.9107 53.8652 41.463 53.8652 40.9107C53.8652 40.3585 53.4175 39.9107 52.8652 39.9107C52.3129 39.9107 51.8652 40.3585 51.8652 40.9107C51.8652 41.463 52.3129 41.9107 52.8652 41.9107Z" fill="#555A6E"/>
<path d="M49.0942 42.5892C49.3704 42.5892 49.5942 42.3654 49.5942 42.0892C49.5942 41.8131 49.3704 41.5892 49.0942 41.5892C48.8181 41.5892 48.5942 41.8131 48.5942 42.0892C48.5942 42.3654 48.8181 42.5892 49.0942 42.5892Z" fill="#555A6E"/>
<path d="M33.8335 38C34.1096 38 34.3335 37.7761 34.3335 37.5C34.3335 37.2239 34.1096 37 33.8335 37C33.5574 37 33.3335 37.2239 33.3335 37.5C33.3335 37.7761 33.5574 38 33.8335 38Z" fill="#463C4B"/>
<path d="M28 24C28.5523 24 29 23.5523 29 23C29 22.4477 28.5523 22 28 22C27.4477 22 27 22.4477 27 23C27 23.5523 27.4477 24 28 24Z" fill="#F04B37"/>
<path d="M19 28C19.5523 28 20 27.5523 20 27C20 26.4477 19.5523 26 19 26C18.4477 26 18 26.4477 18 27C18 27.5523 18.4477 28 19 28Z" fill="#F04B37"/>
<path d="M45 30C45.5523 30 46 29.5523 46 29C46 28.4477 45.5523 28 45 28C44.4477 28 44 28.4477 44 29C44 29.5523 44.4477 30 45 30Z" fill="#E1322D"/>
<path d="M40.5 24C40.7761 24 41 23.7761 41 23.5C41 23.2239 40.7761 23 40.5 23C40.2239 23 40 23.2239 40 23.5C40 23.7761 40.2239 24 40.5 24Z" fill="#E1322D"/>
<path d="M31 30C31.5523 30 32 29.5523 32 29C32 28.4477 31.5523 28 31 28C30.4477 28 30 28.4477 30 29C30 29.5523 30.4477 30 31 30Z" fill="#804B8F"/>
<path d="M15.5 29C15.7761 29 16 28.7761 16 28.5C16 28.2239 15.7761 28 15.5 28C15.2239 28 15 28.2239 15 28.5C15 28.7761 15.2239 29 15.5 29Z" fill="#804B8F"/>
<path d="M23.5 24C23.7761 24 24 23.7761 24 23.5C24 23.2239 23.7761 23 23.5 23C23.2239 23 23 23.2239 23 23.5C23 23.7761 23.2239 24 23.5 24Z" fill="#804B8F"/>
<path d="M48.5 28C48.7761 28 49 27.7761 49 27.5C49 27.2239 48.7761 27 48.5 27C48.2239 27 48 27.2239 48 27.5C48 27.7761 48.2239 28 48.5 28Z" fill="#643773"/>
</svg>
